# xmcd CD database file
#
# Track frame offsets:
#	150
#	8441
#	28119
#	47275
#	51220
#	52946
#	68761
#	86239
#	96039
#	116624
#	129473
#	142330
#	170710
#	195440
#
# Disc length: 2681 seconds
#
# Revision: 0
# Processed by: cddbd v1.5.2PL0 Copyright (c) Steve Scherf et al.
# Submitted via: CDex 1.70beta2
#
DISCID=b90a770e
DTITLE=Schneeweiss and Rosenrot - Pool
DYEAR=2012
DGENRE=Jazz
TTITLE0=Turntable Love
TTITLE1=Miss Palsy
TTITLE2=Le Monsieur
TTITLE3=Macho Pen
TTITLE4=Pretty Krank Frank
TTITLE5=Prosite Parasite
TTITLE6=We're All Loose
TTITLE7=Phony Bones
TTITLE8=Zürich
TTITLE9=World Of Fitness
TTITLE10=Behind Moonshine
TTITLE11=Spinning Spirits
TTITLE12=Ecstatic
TTITLE13=TTL
EXTD=YEAR: 2012
EXTT0=
EXTT1=
EXTT2=
EXTT3=
EXTT4=
EXTT5=
EXTT6=
EXTT7=
EXTT8=
EXTT9=
EXTT10=
EXTT11=
EXTT12=
EXTT13=
PLAYORDER=
